<mxfile host="app.diagrams.net" modified="2023-10-27T09:20:10.795Z" agent="Mozilla/5.0 (Windows NT 6.1; Win64; x64; rv:109.0) Gecko/20100101 Firefox/115.0" version="22.0.8" etag="8NOBy4tNjHg_VltSKcJc" type="github">
  <diagram name="Page-1" id="XyR-5NvA8y7uC1Ap_mml">
    <mxGraphModel>
      <root>
        <mxCell id="0" />
        <mxCell id="1" parent="0" />
      </root>
    </mxGraphModel>
  </diagram>
</mxfile>
